<svg width="200" height="200" viewBox="0 0 200 200" fill="none" xmlns="http://www.w3.org/2000/svg">
<path d="M141.667 22.9167C142.728 22.9168 143.772 23.1874 144.7 23.7028C145.628 24.2182 146.41 24.9614 146.971 25.8625L147.258 26.375L163.217 58.3292L181.25 58.3333V70.8333L169.463 70.8292L180.558 93.0375C180.903 93.7297 181.116 94.4799 181.187 95.25L181.217 95.8333L181.25 154.167V170.833C181.25 172.387 180.671 173.885 179.627 175.035C178.582 176.185 177.147 176.905 175.6 177.054L175 177.083H141.667C140.113 177.083 138.615 176.505 137.465 175.46C136.315 174.415 135.595 172.98 135.446 171.433L135.417 170.833L135.413 160.417H64.5792L64.5833 170.833C64.5836 172.285 64.0786 173.692 63.1548 174.812C62.231 175.932 60.9462 176.695 59.5208 176.971L58.9375 177.054L58.3333 177.083H25C23.4463 177.083 21.9484 176.505 20.7983 175.46C19.6481 174.415 18.9283 172.98 18.7792 171.433L18.75 170.833V95.8333C18.75 95.0583 18.8958 94.2917 19.175 93.5708L19.4083 93.0375L30.5125 70.8333H18.75V58.3333L36.7625 58.3292L52.7417 26.3708C53.2165 25.4222 53.9251 24.61 54.8005 24.0108C55.676 23.4116 56.6896 23.0451 57.7458 22.9458L58.3333 22.9167H141.667ZM129.167 114.583H70.8333V127.083H129.167V114.583Z" fill="#111111"/>
</svg>
