<?xml version="1.0" standalone="no"?><!DOCTYPE svg PUBLIC "-//W3C//DTD SVG 1.1//EN" "http://www.w3.org/Graphics/SVG/1.1/DTD/svg11.dtd"><svg t="1641921791815" class="icon" viewBox="0 0 1024 1024" version="1.1" xmlns="http://www.w3.org/2000/svg" p-id="9531" id="mx_n_1641921791816" data-spm-anchor-id="a313x.7781069.0.i21" xmlns:xlink="http://www.w3.org/1999/xlink" width="200" height="200"><defs><style type="text/css"></style></defs><path d="M512.128 507.264m-492.8 0a492.8 492.8 0 1 0 985.6 0 492.8 492.8 0 1 0-985.6 0Z" fill="#B3ACC1" p-id="9532" data-spm-anchor-id="a313x.7781069.0.i19" class=""></path><path d="M510.976 488.32h2.048c48-0.512 86.912-38.912 86.912-86.016v-28.672c0-47.616-39.424-86.144-87.936-86.144s-87.936 38.528-87.936 86.144v28.672c0.128 47.104 38.912 85.504 86.912 86.016zM681.6 500.864c31.232 0 56.448-24.064 56.448-53.76v-18.048c0-29.696-25.344-53.76-56.448-53.76-31.232 0-56.448 24.064-56.448 53.76v17.92c-0.128 29.824 25.216 53.888 56.448 53.888zM342.528 500.864c31.232 0 56.448-24.064 56.448-53.76v-18.048c0-29.696-25.344-53.76-56.448-53.76s-56.448 24.064-56.448 53.76v17.92c-0.128 29.824 25.216 53.888 56.448 53.888zM260.992 555.648c-14.848 7.552-25.216 24.448-25.216 44.288V622.08c0 14.592 8.448 26.88 20.096 30.848 18.048 4.736 36.48 7.808 55.296 9.6v-39.04c0-34.816 12.672-65.408 31.872-84.736h-0.512c-28.672-0.256-56.192 5.888-81.536 16.896zM763.264 555.776c-25.344-11.136-52.864-17.152-81.792-17.152h-0.384c19.328 19.456 31.872 49.92 31.872 84.736v39.04c18.816-1.792 37.248-4.864 55.168-9.6 11.52-3.968 20.224-16.256 20.224-30.976v-21.888c0-19.712-10.368-36.608-25.088-44.16zM636.928 553.472c-38.784-17.792-80.896-27.648-124.928-27.648-43.904 0-85.888 9.728-124.672 27.392-22.656 12.032-38.528 39.04-38.528 70.784v35.328c0 23.424 12.928 43.008 30.592 49.408 42.752 11.52 87.04 17.92 132.608 17.92 45.568 0 89.728-6.272 132.352-17.92 17.792-6.272 30.72-25.984 30.72-49.408v-35.328c0.256-31.36-15.616-58.368-38.144-70.528z" fill="#FFFFFF" p-id="9533"></path></svg>