<?xml version="1.0" standalone="no"?><!DOCTYPE svg PUBLIC "-//W3C//DTD SVG 1.1//EN" "http://www.w3.org/Graphics/SVG/1.1/DTD/svg11.dtd"><svg t="1641929768932" class="icon" viewBox="0 0 1024 1024" version="1.1" xmlns="http://www.w3.org/2000/svg" p-id="39776" xmlns:xlink="http://www.w3.org/1999/xlink" width="200" height="200"><defs><style type="text/css"></style></defs><path d="M512 773.12c-148.48 0-269.312-120.832-269.312-269.312V315.392C242.688 166.912 363.52 46.08 512 46.08s269.312 120.832 269.312 269.312v188.416c0 7.168 0 14.336-1.024 21.504-1.024 17.408-16.384 29.696-32.768 28.672-17.408-1.024-29.696-16.384-28.672-32.768 0-5.12 1.024-11.264 1.024-16.384V315.392c0-114.688-93.184-207.872-207.872-207.872s-207.872 93.184-207.872 207.872v188.416c0 114.688 93.184 207.872 207.872 207.872 77.824 0 148.48-43.008 185.344-113.664 8.192-15.36 26.624-21.504 40.96-13.312 15.36 8.192 21.504 26.624 13.312 40.96C704.512 716.8 613.376 773.12 512 773.12z" p-id="39777" fill="#3F394B"></path><path d="M512 855.04c-192.512 0-350.208-156.672-350.208-350.208 0-17.408 13.312-30.72 30.72-30.72s30.72 13.312 30.72 30.72c0 158.72 129.024 288.768 288.768 288.768 158.72 0 288.768-129.024 288.768-288.768 0-17.408 13.312-30.72 30.72-30.72s30.72 13.312 30.72 30.72c0 193.536-157.696 350.208-350.208 350.208zM783.36 977.92h-542.72c-17.408 0-30.72-13.312-30.72-30.72s13.312-30.72 30.72-30.72h542.72c17.408 0 30.72 13.312 30.72 30.72s-13.312 30.72-30.72 30.72z" p-id="39778" fill="#3F394B"></path><path d="M507.904 977.92c-17.408 0-30.72-13.312-30.72-30.72v-122.88c0-17.408 13.312-30.72 30.72-30.72s30.72 13.312 30.72 30.72v122.88c0 17.408-13.312 30.72-30.72 30.72z" p-id="39779" fill="#3F394B"></path></svg>