<?xml version="1.0" standalone="no"?><!DOCTYPE svg PUBLIC "-//W3C//DTD SVG 1.1//EN" "http://www.w3.org/Graphics/SVG/1.1/DTD/svg11.dtd"><svg t="1641929976793" class="icon" viewBox="0 0 1024 1024" version="1.1" xmlns="http://www.w3.org/2000/svg" p-id="42728" xmlns:xlink="http://www.w3.org/1999/xlink" width="200" height="200"><defs><style type="text/css"></style></defs><path d="M819.2 802.133333H273.066667c-20.48 0-34.133333-13.653333-34.133334-34.133333s13.653333-34.133333 34.133334-34.133333h546.133333c20.48 0 34.133333-13.653333 34.133333-34.133334v-409.6c0-20.48-13.653333-34.133333-34.133333-34.133333H204.8c-20.48 0-34.133333 13.653333-34.133333 34.133333v477.866667c0 20.48-13.653333 34.133333-34.133334 34.133333s-34.133333-13.653333-34.133333-34.133333v-477.866667c0-58.026667 44.373333-102.4 102.4-102.4h614.4c58.026667 0 102.4 44.373333 102.4 102.4v409.6c0 54.613333-44.373333 102.4-102.4 102.4z m-102.4-170.666666c0-20.48-13.653333-34.133333-34.133333-34.133334H341.333333c-20.48 0-34.133333 13.653333-34.133333 34.133334s13.653333 34.133333 34.133333 34.133333h341.333334c20.48 0 34.133333-17.066667 34.133333-34.133333z m-409.6-307.2c-20.48 0-34.133333 13.653333-34.133333 34.133333s13.653333 34.133333 34.133333 34.133333 34.133333-13.653333 34.133333-34.133333-13.653333-34.133333-34.133333-34.133333z m136.533333 0c-20.48 0-34.133333 13.653333-34.133333 34.133333s13.653333 34.133333 34.133333 34.133333 34.133333-13.653333 34.133334-34.133333-13.653333-34.133333-34.133334-34.133333z m136.533334 0c-20.48 0-34.133333 13.653333-34.133334 34.133333s13.653333 34.133333 34.133334 34.133333 34.133333-13.653333 34.133333-34.133333-13.653333-34.133333-34.133333-34.133333z m136.533333 0c-20.48 0-34.133333 13.653333-34.133333 34.133333s13.653333 34.133333 34.133333 34.133333 34.133333-13.653333 34.133333-34.133333-13.653333-34.133333-34.133333-34.133333z m-409.6 136.533333c-20.48 0-34.133333 13.653333-34.133333 34.133333s13.653333 34.133333 34.133333 34.133334 34.133333-13.653333 34.133333-34.133334-13.653333-34.133333-34.133333-34.133333z m136.533333 0c-20.48 0-34.133333 13.653333-34.133333 34.133333s13.653333 34.133333 34.133333 34.133334 34.133333-13.653333 34.133334-34.133334-13.653333-34.133333-34.133334-34.133333z m136.533334 0c-20.48 0-34.133333 13.653333-34.133334 34.133333s13.653333 34.133333 34.133334 34.133334 34.133333-13.653333 34.133333-34.133334-13.653333-34.133333-34.133333-34.133333z m136.533333 0c-20.48 0-34.133333 13.653333-34.133333 34.133333s13.653333 34.133333 34.133333 34.133334 34.133333-13.653333 34.133333-34.133334-13.653333-34.133333-34.133333-34.133333z" fill="#3F394B" p-id="42729"></path></svg>